<?xml version="1.0" encoding="UTF-8"?>
<svg id="Layer_2" data-name="Layer 2" xmlns="http://www.w3.org/2000/svg" viewBox="0 0 118.55 118.55">
  <defs>
    <style>
      .cls-1 {
        fill: none;
      }

      .cls-2 {
        fill: #351819;
      }
    </style>
  </defs>
  <g id="Layer_1-2" data-name="Layer 1">
    <g>
      <rect class="cls-1" width="118.55" height="118.55"/>
      <g>
        <path class="cls-2" d="M12.37,8.57l93.41-.05c5.21.43,9.5,4.65,9.89,9.88v82.06c-.58,5.08-4.78,9.17-9.89,9.58H12.62c-5.05-.52-9.17-4.52-9.74-9.58V17.95c.66-4.88,4.58-8.81,9.49-9.38ZM12.52,11.88c-3.18.61-5.62,2.93-6.27,6.11-.31,27.49-.32,55.08,0,82.57.62,3.29,3.34,5.81,6.67,6.15h92.55c3.51-.28,6.45-3.04,6.87-6.56V18.55c-.34-3.55-3.22-6.26-6.72-6.71l-93.11.04Z"/>
        <path class="cls-2" d="M108.57,43.97l-10.72-8.6v5.35l10.72,8.45v15.91l-10.72-8.75v5.5l10.72,8.45v15.91l-10.72-8.75v25.94h-11.47v-25.94l-10.67,8.73-10.77-8.58v25.79h-11.32v-25.79l-10.77,8.58-10.67-8.73v25.94h-11.47v-25.94l-10.72,8.75v-15.91l10.72-8.45v-5.35l-10.72,8.6v-15.91l10.72-8.45v-5.35l-10.72,8.6v-15.91l16.38-12.74,16.57,12.64,16.34-12.79,16.34,12.79,16.57-12.64,16.38,12.74v15.91ZM53.61,35.37l-10.79,8.74-10.64-8.74v5.35l10.67,8.35,10.77-8.35v-5.35ZM86.37,35.37l-10.64,8.72-10.8-8.72v5.35l10.77,8.35,10.67-8.35v-5.35ZM53.61,56.49l-10.79,8.6-10.64-8.6v5.35l10.77,8.36,10.66-8.51v-5.2ZM86.37,56.49l-10.64,8.6-10.79-8.6v5.2l10.66,8.51,10.77-8.36v-5.35Z"/>
      </g>
    </g>
  </g>
</svg>