<?xml version="1.0" encoding="UTF-8"?>
<svg id="Layer_2" data-name="Layer 2" xmlns="http://www.w3.org/2000/svg" viewBox="0 0 137.93 48.2">
  <defs>
    <style>
      .cls-1 {
        fill: #d2cabb;
      }
    </style>
  </defs>
  <g id="Layer_1-2" data-name="Layer 1">
    <g>
      <polygon class="cls-1" points="137.93 45.05 119.86 45.05 119.86 19.27 137.78 19.27 137.78 22.92 124.67 22.92 124.67 30.01 135.99 30.01 135.99 33.52 124.67 33.52 124.67 41.47 137.93 41.47 137.93 45.05"/>
      <polygon class="cls-1" points="98.97 19.27 111.33 37.53 111.33 19.27 116.14 19.27 116.14 45.05 111.37 45.05 99 26.86 99 45.05 94.2 45.05 94.2 19.27 98.97 19.27"/>
      <path class="cls-1" d="M4.5.02l44.36-.02c2.47.2,4.51,2.21,4.7,4.69v38.97c-.27,2.41-2.27,4.36-4.7,4.55H4.62c-2.4-.25-4.36-2.14-4.62-4.55V4.48C.31,2.16,2.18.3,4.5.02ZM4.57,1.6c-1.51.29-2.67,1.39-2.98,2.9-.15,13.05-.15,26.16,0,39.21.3,1.56,1.59,2.76,3.17,2.92h43.95c1.67-.13,3.06-1.44,3.26-3.12V4.76c-.16-1.69-1.53-2.97-3.19-3.19l-44.21.02Z"/>
      <path class="cls-1" d="M67.1,35.45v9.6h-4.8v-25.78h11.22c4.35.11,8.77,2.37,9.34,7.06.34,2.78-.48,5.48-2.76,7.18-3.68,2.74-8.7,1.76-13,1.95ZM67.1,31.87c2.06-.09,4.23.13,6.28,0,3.08-.18,4.99-1.81,4.68-5.04-.19-1.96-2.19-3.91-4.18-3.91h-6.77v8.95Z"/>
      <rect class="cls-1" x="85.45" y="19.27" width="4.8" height="25.78"/>
      <polygon class="cls-1" points="92.05 13.75 92.05 3.37 93.2 3.37 93.2 15.62 91.98 15.62 84.61 5.32 84.45 5.23 84.45 15.62 83.37 15.62 83.37 3.37 84.49 3.37 92.05 13.75"/>
      <path class="cls-1" d="M67.14,3.37c1.24.11,2.67.72,3.13,1.96.6,1.64-.08,3.3-1.73,3.88.67.3,1.23.5,1.72,1.08,1.78,2.12-.03,5.33-2.69,5.33h-5.27V3.37c1.56.1,3.3-.14,4.84,0ZM63.37,4.23v4.55l.11.11h3.23c.52,0,1.44-.32,1.86-.65,1.21-.96,1-3.07-.47-3.69-.27-.11-1.06-.32-1.33-.32h-3.41ZM63.37,14.76h3.91c2.02,0,3.37-2.48,2.01-4.08-.36-.42-1.32-.93-1.86-.93h-4.05v5.01Z"/>
      <path class="cls-1" d="M111.1,3.17c2.99-.09,5.11,1.94,5.32,4.88s-.12,6.72-3.61,7.57-6.4-1.24-6.64-4.84.58-7.48,4.94-7.61ZM110.89,4.11c-3.51.35-3.96,4.2-3.56,7.02.64,4.58,6.41,5.16,7.71,1.06,1.01-3.18.25-8.52-4.15-8.09Z"/>
      <path class="cls-1" d="M82.3,15.62h-1.15l-1.36-3.4h-5.95s-1.39,3.4-1.39,3.4h-1.11l4.94-12.21c.26-.03.99-.13,1.14.08l4.88,12.13ZM79.43,11.32l-2.62-6.66-2.62,6.66h5.23Z"/>
      <path class="cls-1" d="M104.95,7.16h-1.15c-.26-1.75-1.29-2.94-3.12-3.08-3.02-.24-4.34,1.79-4.49,4.55-.17,3.21.51,6.59,4.49,6.27,1.84-.15,2.87-1.3,3.12-3.08h1.15c-.27,1.95-1.39,3.41-3.37,3.83-2.84.6-5.4-.5-6.22-3.39-.42-1.49-.39-4.69.2-6.13.96-2.32,3.12-3.21,5.54-2.9,2.21.29,3.57,1.75,3.84,3.93Z"/>
      <path class="cls-1" d="M50.18,16.83l-5.09-4.08v2.54l5.09,4.01v7.56l-5.09-4.15v2.61l5.09,4.01v7.56l-5.09-4.15v12.32h-5.45v-12.32l-5.07,4.14-5.11-4.07v12.25h-5.38v-12.25l-5.11,4.07-5.07-4.14v12.32h-5.45v-12.32l-5.09,4.15v-7.56l5.09-4.01v-2.54l-5.09,4.08v-7.56l5.09-4.01v-2.54l-5.09,4.08v-7.56l7.78-6.05,7.87,6,7.76-6.07,7.76,6.07,7.87-6,7.78,6.05v7.56ZM24.09,12.75l-5.13,4.15-5.05-4.15v2.54l5.07,3.96,5.11-3.96v-2.54ZM39.65,12.75l-5.05,4.14-5.13-4.14v2.54l5.11,3.96,5.07-3.96v-2.54ZM24.09,22.78l-5.13,4.09-5.05-4.09v2.54l5.12,3.97,5.06-4.04v-2.47ZM39.65,22.78l-5.05,4.09-5.13-4.09v2.47l5.06,4.04,5.12-3.97v-2.54Z"/>
    </g>
  </g>
</svg>